<svg xmlns="http://www.w3.org/2000/svg" xmlns:xlink="http://www.w3.org/1999/xlink" width="500" zoomAndPan="magnify" viewBox="0 0 375 374.999991" height="500" preserveAspectRatio="xMidYMid meet" version="1.0"><defs><g/><clipPath id="9f6496c929"><path d="M 33.21875 151.582031 L 351.96875 151.582031 L 351.96875 223.582031 L 33.21875 223.582031 Z M 33.21875 151.582031 " clip-rule="nonzero"/></clipPath><clipPath id="076f72ea6d"><path d="M 37.5 158.238281 L 187.332031 158.238281 L 187.332031 216.761719 L 37.5 216.761719 Z M 37.5 158.238281 " clip-rule="nonzero"/></clipPath><clipPath id="9f8165897b"><path d="M 0.5 0.238281 L 150.332031 0.238281 L 150.332031 58.761719 L 0.5 58.761719 Z M 0.5 0.238281 " clip-rule="nonzero"/></clipPath><clipPath id="2c97618740"><rect x="0" width="151" y="0" height="59"/></clipPath></defs><rect x="-37.5" width="450" fill="#ffffff" y="-37.499999" height="449.999989" fill-opacity="1"/><rect x="-37.5" width="450" fill="#ffffff" y="-37.499999" height="449.999989" fill-opacity="1"/><g clip-path="url(#9f6496c929)"><path stroke-linecap="butt" transform="matrix(0.75, 0, 0, 0.75, 33.21918, 151.583076)" fill="none" stroke-linejoin="miter" d="M -0.000572905 -0.00139253 L 425.108803 -0.00139253 L 425.108803 96.092358 L -0.000572905 96.092358 Z M -0.000572905 -0.00139253 " stroke="#000000" stroke-width="6" stroke-opacity="1" stroke-miterlimit="4"/></g><g clip-path="url(#076f72ea6d)"><g transform="matrix(1, 0, 0, 1, 37, 158)"><g clip-path="url(#2c97618740)"><g clip-path="url(#9f8165897b)"><path fill="#000000" d="M 0.5 0.238281 L 150.242188 0.238281 L 150.242188 58.761719 L 0.5 58.761719 Z M 0.5 0.238281 " fill-opacity="1" fill-rule="nonzero"/></g></g></g></g><g fill="#ffffff" fill-opacity="1"><g transform="translate(42.791855, 200.249987)"><g><path d="M 13.703125 -2.1875 L 13.703125 0 L 2.109375 0 L 2.109375 -19.671875 L 4.546875 -19.671875 L 4.515625 -2.1875 Z M 13.703125 -2.1875 "/></g></g></g><g fill="#ffffff" fill-opacity="1"><g transform="translate(59.779957, 200.249987)"><g><path d="M 2.1875 -19.671875 L 4.640625 -19.671875 L 4.640625 0 L 2.1875 0 Z M 2.1875 -19.671875 "/></g></g></g><g fill="#ffffff" fill-opacity="1"><g transform="translate(68.737727, 200.249987)"><g><path d="M 10.03125 0.203125 C 8.101562 0.203125 6.5 -0.285156 5.21875 -1.265625 C 3.945312 -2.253906 3.003906 -3.515625 2.390625 -5.046875 C 1.785156 -6.585938 1.484375 -8.210938 1.484375 -9.921875 C 1.484375 -11.640625 1.789062 -13.269531 2.40625 -14.8125 C 3.03125 -16.363281 4 -17.628906 5.3125 -18.609375 C 6.625 -19.597656 8.257812 -20.09375 10.21875 -20.09375 C 12.414062 -20.09375 14.191406 -19.492188 15.546875 -18.296875 C 16.910156 -17.109375 17.851562 -15.617188 18.375 -13.828125 L 15.8125 -13.828125 C 15.4375 -15.097656 14.78125 -16.085938 13.84375 -16.796875 C 12.914062 -17.515625 11.707031 -17.875 10.21875 -17.875 C 8.257812 -17.875 6.726562 -17.160156 5.625 -15.734375 C 4.519531 -14.304688 3.96875 -12.359375 3.96875 -9.890625 C 3.96875 -7.378906 4.53125 -5.410156 5.65625 -3.984375 C 6.789062 -2.566406 8.351562 -1.859375 10.34375 -1.859375 C 11.519531 -1.859375 12.535156 -2.101562 13.390625 -2.59375 C 14.242188 -3.09375 14.898438 -3.769531 15.359375 -4.625 C 15.816406 -5.488281 16.050781 -6.46875 16.0625 -7.5625 L 16.09375 -8.34375 L 10.59375 -8.34375 L 10.59375 -10.171875 L 18.375 -10.171875 L 18.375 0 L 16.4375 0 L 16.4375 -3.265625 L 16.203125 -3.265625 C 16.097656 -2.984375 15.847656 -2.582031 15.453125 -2.0625 C 15.054688 -1.550781 14.40625 -1.046875 13.5 -0.546875 C 12.59375 -0.046875 11.4375 0.203125 10.03125 0.203125 Z M 10.03125 0.203125 "/></g></g></g><g fill="#ffffff" fill-opacity="1"><g transform="translate(90.976423, 200.249987)"><g><path d="M 16.96875 -19.671875 L 16.96875 0 L 14.53125 0 L 14.53125 -8.90625 L 4.515625 -8.90625 L 4.515625 0 L 2.109375 0 L 2.109375 -19.671875 L 4.515625 -19.671875 L 4.515625 -10.875 L 14.53125 -10.875 L 14.53125 -19.671875 Z M 16.96875 -19.671875 "/></g></g></g><g fill="#ffffff" fill-opacity="1"><g transform="translate(112.176235, 200.249987)"><g><path d="M 15.25 -17.46875 L 9.46875 -17.46875 L 9.46875 0 L 7.046875 0 L 7.046875 -17.46875 L 1.265625 -17.46875 L 1.265625 -19.671875 L 15.25 -19.671875 Z M 15.25 -17.46875 "/></g></g></g><g fill="#ffffff" fill-opacity="1"><g transform="translate(130.84902, 200.249987)"><g><path d="M 2.1875 -19.671875 L 4.640625 -19.671875 L 4.640625 0 L 2.1875 0 Z M 2.1875 -19.671875 "/></g></g></g><g fill="#ffffff" fill-opacity="1"><g transform="translate(139.806791, 200.249987)"><g><path d="M 2.109375 -19.671875 L 4.828125 -19.671875 L 15.375 -3.875 L 15.484375 -3.875 L 15.484375 -19.671875 L 17.875 -19.671875 L 17.875 0 L 15.109375 0 L 4.609375 -15.5625 L 4.5 -15.5625 L 4.5 0 L 2.109375 0 Z M 2.109375 -19.671875 "/></g></g></g><g fill="#ffffff" fill-opacity="1"><g transform="translate(161.905103, 200.249987)"><g><path d="M 10.03125 0.203125 C 8.101562 0.203125 6.5 -0.285156 5.21875 -1.265625 C 3.945312 -2.253906 3.003906 -3.515625 2.390625 -5.046875 C 1.785156 -6.585938 1.484375 -8.210938 1.484375 -9.921875 C 1.484375 -11.640625 1.789062 -13.269531 2.40625 -14.8125 C 3.03125 -16.363281 4 -17.628906 5.3125 -18.609375 C 6.625 -19.597656 8.257812 -20.09375 10.21875 -20.09375 C 12.414062 -20.09375 14.191406 -19.492188 15.546875 -18.296875 C 16.910156 -17.109375 17.851562 -15.617188 18.375 -13.828125 L 15.8125 -13.828125 C 15.4375 -15.097656 14.78125 -16.085938 13.84375 -16.796875 C 12.914062 -17.515625 11.707031 -17.875 10.21875 -17.875 C 8.257812 -17.875 6.726562 -17.160156 5.625 -15.734375 C 4.519531 -14.304688 3.96875 -12.359375 3.96875 -9.890625 C 3.96875 -7.378906 4.53125 -5.410156 5.65625 -3.984375 C 6.789062 -2.566406 8.351562 -1.859375 10.34375 -1.859375 C 11.519531 -1.859375 12.535156 -2.101562 13.390625 -2.59375 C 14.242188 -3.09375 14.898438 -3.769531 15.359375 -4.625 C 15.816406 -5.488281 16.050781 -6.46875 16.0625 -7.5625 L 16.09375 -8.34375 L 10.59375 -8.34375 L 10.59375 -10.171875 L 18.375 -10.171875 L 18.375 0 L 16.4375 0 L 16.4375 -3.265625 L 16.203125 -3.265625 C 16.097656 -2.984375 15.847656 -2.582031 15.453125 -2.0625 C 15.054688 -1.550781 14.40625 -1.046875 13.5 -0.546875 C 12.59375 -0.046875 11.4375 0.203125 10.03125 0.203125 Z M 10.03125 0.203125 "/></g></g></g><g fill="#000000" fill-opacity="1"><g transform="translate(193.996339, 200.368259)"><g><path d="M 8.734375 0.25 C 7.160156 0.25 5.796875 -0.0546875 4.640625 -0.671875 C 3.492188 -1.285156 2.625 -2.09375 2.03125 -3.09375 C 1.445312 -4.101562 1.15625 -5.148438 1.15625 -6.234375 L 1.15625 -6.46875 L 5.953125 -6.46875 L 5.953125 -6.265625 C 5.953125 -5.585938 6.195312 -4.96875 6.6875 -4.40625 C 7.175781 -3.84375 7.890625 -3.5625 8.828125 -3.5625 C 9.628906 -3.5625 10.269531 -3.765625 10.75 -4.171875 C 11.238281 -4.585938 11.484375 -5.132812 11.484375 -5.8125 C 11.484375 -6.414062 11.269531 -6.898438 10.84375 -7.265625 C 10.414062 -7.628906 9.890625 -7.875 9.265625 -8 L 7.03125 -8.453125 C 5.71875 -8.753906 4.488281 -9.316406 3.34375 -10.140625 C 2.195312 -10.960938 1.625 -12.3125 1.625 -14.1875 C 1.625 -15.40625 1.921875 -16.453125 2.515625 -17.328125 C 3.109375 -18.210938 3.925781 -18.890625 4.96875 -19.359375 C 6.019531 -19.828125 7.210938 -20.0625 8.546875 -20.0625 C 10.054688 -20.0625 11.363281 -19.769531 12.46875 -19.1875 C 13.570312 -18.601562 14.40625 -17.847656 14.96875 -16.921875 C 15.53125 -15.992188 15.8125 -15.023438 15.8125 -14.015625 L 15.8125 -13.875 L 11.015625 -13.875 L 11.015625 -13.96875 C 11.015625 -14.5625 10.800781 -15.113281 10.375 -15.625 C 9.957031 -16.144531 9.289062 -16.40625 8.375 -16.40625 C 7.65625 -16.40625 7.085938 -16.207031 6.671875 -15.8125 C 6.253906 -15.425781 6.046875 -14.910156 6.046875 -14.265625 C 6.046875 -13.648438 6.273438 -13.164062 6.734375 -12.8125 C 7.203125 -12.457031 7.765625 -12.210938 8.421875 -12.078125 L 10.703125 -11.578125 C 12.179688 -11.253906 13.441406 -10.648438 14.484375 -9.765625 C 15.535156 -8.890625 16.0625 -7.609375 16.0625 -5.921875 C 16.0625 -4.691406 15.742188 -3.609375 15.109375 -2.671875 C 14.472656 -1.734375 13.597656 -1.007812 12.484375 -0.5 C 11.367188 0 10.117188 0.25 8.734375 0.25 Z M 8.734375 0.25 "/></g></g></g><g fill="#000000" fill-opacity="1"><g transform="translate(210.983581, 200.368259)"><g><path d="M 1.65625 -19.671875 L 6.0625 -19.671875 L 6.0625 0 L 1.65625 0 Z M 1.65625 -19.671875 "/></g></g></g><g fill="#000000" fill-opacity="1"><g transform="translate(218.733131, 200.368259)"><g><path d="M 1.453125 -19.671875 L 7.984375 -19.671875 L 11.828125 -8.515625 L 11.90625 -8.515625 L 15.765625 -19.671875 L 22.28125 -19.671875 L 22.28125 0 L 17.984375 0 L 17.984375 -13.484375 L 17.875 -13.484375 L 13.265625 0 L 10.484375 0 L 5.875 -13.484375 L 5.765625 -13.484375 L 5.765625 0 L 1.453125 0 Z M 1.453125 -19.671875 "/></g></g></g><g fill="#000000" fill-opacity="1"><g transform="translate(242.459112, 200.368259)"><g><path d="M 1.65625 -19.671875 L 6.0625 -19.671875 L 6.0625 0 L 1.65625 0 Z M 1.65625 -19.671875 "/></g></g></g><g fill="#000000" fill-opacity="1"><g transform="translate(250.208661, 200.368259)"><g><path d="M 8.9375 -19.671875 C 10.488281 -19.671875 11.800781 -19.347656 12.875 -18.703125 C 13.957031 -18.066406 14.757812 -17.222656 15.28125 -16.171875 C 15.800781 -15.128906 16.0625 -14 16.0625 -12.78125 C 16.0625 -11.582031 15.804688 -10.472656 15.296875 -9.453125 C 14.785156 -8.429688 13.988281 -7.609375 12.90625 -6.984375 C 11.832031 -6.367188 10.507812 -6.0625 8.9375 -6.0625 L 5.765625 -6.0625 L 5.765625 0 L 1.453125 0 L 1.453125 -19.671875 Z M 8.234375 -9.671875 C 9.242188 -9.671875 10.09375 -9.90625 10.78125 -10.375 C 11.476562 -10.851562 11.828125 -11.65625 11.828125 -12.78125 C 11.828125 -13.90625 11.484375 -14.691406 10.796875 -15.140625 C 10.117188 -15.585938 9.265625 -15.8125 8.234375 -15.8125 L 5.765625 -15.8125 L 5.765625 -9.671875 Z M 8.234375 -9.671875 "/></g></g></g><g fill="#000000" fill-opacity="1"><g transform="translate(266.662415, 200.368259)"><g><path d="M 14.125 -3.828125 L 14.125 0 L 1.453125 0 L 1.453125 -19.671875 L 5.875 -19.671875 L 5.84375 -3.828125 Z M 14.125 -3.828125 "/></g></g></g><g fill="#000000" fill-opacity="1"><g transform="translate(281.684191, 200.368259)"><g><path d="M 1.65625 -19.671875 L 6.0625 -19.671875 L 6.0625 0 L 1.65625 0 Z M 1.65625 -19.671875 "/></g></g></g><g fill="#000000" fill-opacity="1"><g transform="translate(289.433741, 200.368259)"><g><path d="M 5.90625 -15.84375 L 5.90625 -11.6875 L 13.265625 -11.6875 L 13.265625 -8.28125 L 5.90625 -8.28125 L 5.90625 0 L 1.484375 0 L 1.484375 -19.671875 L 14.25 -19.671875 L 14.25 -15.84375 Z M 5.90625 -15.84375 "/></g></g></g><g fill="#000000" fill-opacity="1"><g transform="translate(303.75356, 200.368259)"><g><path d="M 1.65625 -19.671875 L 6.0625 -19.671875 L 6.0625 0 L 1.65625 0 Z M 1.65625 -19.671875 "/></g></g></g><g fill="#000000" fill-opacity="1"><g transform="translate(311.50311, 200.368259)"><g><path d="M 5.875 -15.84375 L 5.875 -11.65625 L 13.34375 -11.65625 L 13.34375 -8.265625 L 5.875 -8.265625 L 5.875 -3.828125 L 14.75 -3.828125 L 14.75 0 L 1.453125 0 L 1.453125 -19.671875 L 14.75 -19.671875 L 14.75 -15.84375 Z M 5.875 -15.84375 "/></g></g></g><g fill="#000000" fill-opacity="1"><g transform="translate(327.395301, 200.368259)"><g><path d="M 1.453125 -19.6875 L 9.21875 -19.6875 C 10.957031 -19.6875 12.488281 -19.296875 13.8125 -18.515625 C 15.144531 -17.742188 16.179688 -16.625 16.921875 -15.15625 C 17.660156 -13.6875 18.03125 -11.929688 18.03125 -9.890625 C 18.03125 -7.804688 17.65625 -6.023438 16.90625 -4.546875 C 16.15625 -3.066406 15.109375 -1.941406 13.765625 -1.171875 C 12.429688 -0.410156 10.894531 -0.03125 9.15625 -0.03125 L 1.453125 -0.03125 Z M 8.34375 -3.96875 C 9.875 -3.96875 11.085938 -4.40625 11.984375 -5.28125 C 12.890625 -6.164062 13.34375 -7.703125 13.34375 -9.890625 C 13.34375 -12.078125 12.894531 -13.609375 12 -14.484375 C 11.113281 -15.367188 9.894531 -15.8125 8.34375 -15.8125 L 5.703125 -15.8125 L 5.703125 -3.96875 Z M 8.34375 -3.96875 "/></g></g></g></svg>