<svg xmlns="http://www.w3.org/2000/svg" xmlns:xlink="http://www.w3.org/1999/xlink" width="1920" zoomAndPan="magnify" viewBox="0 0 1440 809.999993" height="1080" preserveAspectRatio="xMidYMid meet" version="1.0"><defs><g/><clipPath id="f9041e2039"><path d="M 193.300781 285.941406 L 1246.695312 285.941406 L 1246.695312 523.691406 L 193.300781 523.691406 Z M 193.300781 285.941406 " clip-rule="nonzero"/></clipPath><clipPath id="fb7e53f3f2"><path d="M 207.441406 307.925781 L 702.476562 307.925781 L 702.476562 501.292969 L 207.441406 501.292969 Z M 207.441406 307.925781 " clip-rule="nonzero"/></clipPath><clipPath id="ec8eef6e25"><path d="M 0.441406 0.925781 L 495.476562 0.925781 L 495.476562 194.292969 L 0.441406 194.292969 Z M 0.441406 0.925781 " clip-rule="nonzero"/></clipPath><clipPath id="5120ccd6dd"><rect x="0" width="496" y="0" height="195"/></clipPath><clipPath id="cf27832ccf"><rect x="0" width="472" y="0" height="137"/></clipPath><clipPath id="5d61556560"><rect x="0" width="509" y="0" height="138"/></clipPath></defs><g clip-path="url(#f9041e2039)"><path stroke-linecap="butt" transform="matrix(0.75, 0, 0, 0.75, 193.298903, 285.942253)" fill="none" stroke-linejoin="miter" d="M 0.00250447 -0.00112875 L 1404.528617 -0.00112875 L 1404.528617 317.483262 L 0.00250447 317.483262 Z M 0.00250447 -0.00112875 " stroke="#000000" stroke-width="12" stroke-opacity="1" stroke-miterlimit="4"/></g><g clip-path="url(#fb7e53f3f2)"><g transform="matrix(1, 0, 0, 1, 207, 307)"><g clip-path="url(#5120ccd6dd)"><g clip-path="url(#ec8eef6e25)"><path fill="#000000" d="M 0.441406 0.925781 L 495.179688 0.925781 L 495.179688 194.292969 L 0.441406 194.292969 Z M 0.441406 0.925781 " fill-opacity="1" fill-rule="nonzero"/></g></g></g></g><g transform="matrix(1, 0, 0, 1, 223, 335)"><g clip-path="url(#cf27832ccf)"><g fill="#ffffff" fill-opacity="1"><g transform="translate(1.924661, 111.734121)"><g><path d="M 45.28125 -7.234375 L 45.28125 0 L 6.953125 0 L 6.953125 -64.953125 L 15.03125 -64.953125 L 14.9375 -7.234375 Z M 45.28125 -7.234375 "/></g></g></g><g fill="#ffffff" fill-opacity="1"><g transform="translate(58.051875, 111.734121)"><g><path d="M 7.234375 -64.953125 L 15.3125 -64.953125 L 15.3125 0 L 7.234375 0 Z M 7.234375 -64.953125 "/></g></g></g><g fill="#ffffff" fill-opacity="1"><g transform="translate(87.647573, 111.734121)"><g><path d="M 33.125 0.65625 C 26.757812 0.65625 21.472656 -0.96875 17.265625 -4.21875 C 13.054688 -7.46875 9.945312 -11.628906 7.9375 -16.703125 C 5.925781 -21.773438 4.921875 -27.125 4.921875 -32.75 C 4.921875 -38.445312 5.941406 -43.847656 7.984375 -48.953125 C 10.023438 -54.054688 13.207031 -58.226562 17.53125 -61.46875 C 21.863281 -64.71875 27.28125 -66.34375 33.78125 -66.34375 C 41.019531 -66.34375 46.878906 -64.378906 51.359375 -60.453125 C 55.847656 -56.523438 58.957031 -51.59375 60.6875 -45.65625 L 52.25 -45.65625 C 51.007812 -49.863281 48.84375 -53.140625 45.75 -55.484375 C 42.65625 -57.835938 38.664062 -59.015625 33.78125 -59.015625 C 27.28125 -59.015625 22.203125 -56.660156 18.546875 -51.953125 C 14.898438 -47.253906 13.078125 -40.828125 13.078125 -32.671875 C 13.078125 -24.378906 14.945312 -17.878906 18.6875 -13.171875 C 22.4375 -8.472656 27.59375 -6.125 34.15625 -6.125 C 38.050781 -6.125 41.40625 -6.941406 44.21875 -8.578125 C 47.03125 -10.222656 49.191406 -12.46875 50.703125 -15.3125 C 52.222656 -18.15625 53.015625 -21.375 53.078125 -24.96875 L 53.171875 -27.5625 L 34.984375 -27.5625 L 34.984375 -33.59375 L 60.6875 -33.59375 L 60.6875 0 L 54.28125 0 L 54.28125 -10.765625 L 53.546875 -10.765625 C 53.171875 -9.835938 52.332031 -8.519531 51.03125 -6.8125 C 49.738281 -5.113281 47.59375 -3.441406 44.59375 -1.796875 C 41.59375 -0.160156 37.769531 0.65625 33.125 0.65625 Z M 33.125 0.65625 "/></g></g></g><g fill="#ffffff" fill-opacity="1"><g transform="translate(161.122295, 111.734121)"><g><path d="M 56.046875 -64.953125 L 56.046875 0 L 47.96875 0 L 47.96875 -29.421875 L 14.9375 -29.421875 L 14.9375 0 L 6.953125 0 L 6.953125 -64.953125 L 14.9375 -64.953125 L 14.9375 -35.90625 L 47.96875 -35.90625 L 47.96875 -64.953125 Z M 56.046875 -64.953125 "/></g></g></g><g fill="#ffffff" fill-opacity="1"><g transform="translate(231.164637, 111.734121)"><g><path d="M 50.390625 -57.71875 L 31.265625 -57.71875 L 31.265625 0 L 23.296875 0 L 23.296875 -57.71875 L 4.171875 -57.71875 L 4.171875 -64.953125 L 50.390625 -64.953125 Z M 50.390625 -57.71875 "/></g></g></g><g fill="#ffffff" fill-opacity="1"><g transform="translate(292.857902, 111.734121)"><g><path d="M 7.234375 -64.953125 L 15.3125 -64.953125 L 15.3125 0 L 7.234375 0 Z M 7.234375 -64.953125 "/></g></g></g><g fill="#ffffff" fill-opacity="1"><g transform="translate(322.4536, 111.734121)"><g><path d="M 6.953125 -64.953125 L 15.96875 -64.953125 L 50.765625 -12.8125 L 51.125 -12.8125 L 51.125 -64.953125 L 59.015625 -64.953125 L 59.015625 0 L 49.921875 0 L 15.21875 -51.40625 L 14.84375 -51.40625 L 14.84375 0 L 6.953125 0 Z M 6.953125 -64.953125 "/></g></g></g><g fill="#ffffff" fill-opacity="1"><g transform="translate(395.464506, 111.734121)"><g><path d="M 33.125 0.65625 C 26.757812 0.65625 21.472656 -0.96875 17.265625 -4.21875 C 13.054688 -7.46875 9.945312 -11.628906 7.9375 -16.703125 C 5.925781 -21.773438 4.921875 -27.125 4.921875 -32.75 C 4.921875 -38.445312 5.941406 -43.847656 7.984375 -48.953125 C 10.023438 -54.054688 13.207031 -58.226562 17.53125 -61.46875 C 21.863281 -64.71875 27.28125 -66.34375 33.78125 -66.34375 C 41.019531 -66.34375 46.878906 -64.378906 51.359375 -60.453125 C 55.847656 -56.523438 58.957031 -51.59375 60.6875 -45.65625 L 52.25 -45.65625 C 51.007812 -49.863281 48.84375 -53.140625 45.75 -55.484375 C 42.65625 -57.835938 38.664062 -59.015625 33.78125 -59.015625 C 27.28125 -59.015625 22.203125 -56.660156 18.546875 -51.953125 C 14.898438 -47.253906 13.078125 -40.828125 13.078125 -32.671875 C 13.078125 -24.378906 14.945312 -17.878906 18.6875 -13.171875 C 22.4375 -8.472656 27.59375 -6.125 34.15625 -6.125 C 38.050781 -6.125 41.40625 -6.941406 44.21875 -8.578125 C 47.03125 -10.222656 49.191406 -12.46875 50.703125 -15.3125 C 52.222656 -18.15625 53.015625 -21.375 53.078125 -24.96875 L 53.171875 -27.5625 L 34.984375 -27.5625 L 34.984375 -33.59375 L 60.6875 -33.59375 L 60.6875 0 L 54.28125 0 L 54.28125 -10.765625 L 53.546875 -10.765625 C 53.171875 -9.835938 52.332031 -8.519531 51.03125 -6.8125 C 49.738281 -5.113281 47.59375 -3.441406 44.59375 -1.796875 C 41.59375 -0.160156 37.769531 0.65625 33.125 0.65625 Z M 33.125 0.65625 "/></g></g></g></g></g><g transform="matrix(1, 0, 0, 1, 722, 335)"><g clip-path="url(#5d61556560)"><g fill="#000000" fill-opacity="1"><g transform="translate(2.491227, 112.124882)"><g><path d="M 28.859375 0.828125 C 23.660156 0.828125 19.160156 -0.191406 15.359375 -2.234375 C 11.554688 -4.273438 8.675781 -6.945312 6.71875 -10.25 C 4.769531 -13.5625 3.796875 -17.007812 3.796875 -20.59375 L 3.796875 -21.34375 L 19.671875 -21.34375 L 19.671875 -20.6875 C 19.671875 -18.46875 20.472656 -16.425781 22.078125 -14.5625 C 23.691406 -12.707031 26.046875 -11.78125 29.140625 -11.78125 C 31.796875 -11.78125 33.925781 -12.460938 35.53125 -13.828125 C 37.144531 -15.191406 37.953125 -16.984375 37.953125 -19.203125 C 37.953125 -21.179688 37.238281 -22.773438 35.8125 -23.984375 C 34.394531 -25.191406 32.664062 -26.015625 30.625 -26.453125 L 23.203125 -27.9375 C 18.867188 -28.925781 14.8125 -30.78125 11.03125 -33.5 C 7.257812 -36.21875 5.375 -40.671875 5.375 -46.859375 C 5.375 -50.878906 6.347656 -54.34375 8.296875 -57.25 C 10.253906 -60.15625 12.960938 -62.378906 16.421875 -63.921875 C 19.890625 -65.472656 23.816406 -66.25 28.203125 -66.25 C 33.222656 -66.25 37.554688 -65.289062 41.203125 -63.375 C 44.847656 -61.457031 47.597656 -58.96875 49.453125 -55.90625 C 51.316406 -52.84375 52.25 -49.644531 52.25 -46.3125 L 52.25 -45.84375 L 36.375 -45.84375 L 36.375 -46.125 C 36.375 -48.101562 35.675781 -49.941406 34.28125 -51.640625 C 32.894531 -53.335938 30.6875 -54.1875 27.65625 -54.1875 C 25.300781 -54.1875 23.425781 -53.535156 22.03125 -52.234375 C 20.644531 -50.941406 19.953125 -49.242188 19.953125 -47.140625 C 19.953125 -45.097656 20.722656 -43.488281 22.265625 -42.3125 C 23.816406 -41.132812 25.675781 -40.332031 27.84375 -39.90625 L 35.359375 -38.234375 C 40.242188 -37.179688 44.414062 -35.203125 47.875 -32.296875 C 51.34375 -29.390625 53.078125 -25.148438 53.078125 -19.578125 C 53.078125 -15.492188 52.023438 -11.90625 49.921875 -8.8125 C 47.816406 -5.71875 44.925781 -3.335938 41.25 -1.671875 C 37.570312 -0.00390625 33.441406 0.828125 28.859375 0.828125 Z M 28.859375 0.828125 "/></g></g></g><g fill="#000000" fill-opacity="1"><g transform="translate(58.615603, 112.124882)"><g><path d="M 5.46875 -64.953125 L 20.046875 -64.953125 L 20.046875 0 L 5.46875 0 Z M 5.46875 -64.953125 "/></g></g></g><g fill="#000000" fill-opacity="1"><g transform="translate(84.219443, 112.124882)"><g><path d="M 4.828125 -64.953125 L 26.359375 -64.953125 L 39.0625 -28.125 L 39.34375 -28.125 L 52.0625 -64.953125 L 73.59375 -64.953125 L 73.59375 0 L 59.390625 0 L 59.390625 -44.546875 L 59.015625 -44.546875 L 43.796875 0 L 34.609375 0 L 19.390625 -44.546875 L 19.015625 -44.546875 L 19.015625 0 L 4.828125 0 Z M 4.828125 -64.953125 "/></g></g></g><g fill="#000000" fill-opacity="1"><g transform="translate(162.608029, 112.124882)"><g><path d="M 5.46875 -64.953125 L 20.046875 -64.953125 L 20.046875 0 L 5.46875 0 Z M 5.46875 -64.953125 "/></g></g></g><g fill="#000000" fill-opacity="1"><g transform="translate(188.211869, 112.124882)"><g><path d="M 29.515625 -64.953125 C 34.648438 -64.953125 38.992188 -63.898438 42.546875 -61.796875 C 46.109375 -59.691406 48.753906 -56.90625 50.484375 -53.4375 C 52.210938 -49.976562 53.078125 -46.238281 53.078125 -42.21875 C 53.078125 -38.257812 52.222656 -34.59375 50.515625 -31.21875 C 48.816406 -27.851562 46.1875 -25.148438 42.625 -23.109375 C 39.070312 -21.066406 34.703125 -20.046875 29.515625 -20.046875 L 19.015625 -20.046875 L 19.015625 0 L 4.828125 0 L 4.828125 -64.953125 Z M 27.1875 -31.921875 C 30.53125 -31.921875 33.34375 -32.707031 35.625 -34.28125 C 37.914062 -35.863281 39.0625 -38.507812 39.0625 -42.21875 C 39.0625 -45.9375 37.929688 -48.535156 35.671875 -50.015625 C 33.421875 -51.503906 30.59375 -52.25 27.1875 -52.25 L 19.015625 -52.25 L 19.015625 -31.921875 Z M 27.1875 -31.921875 "/></g></g></g><g fill="#000000" fill-opacity="1"><g transform="translate(242.573643, 112.124882)"><g><path d="M 46.671875 -12.625 L 46.671875 0 L 4.828125 0 L 4.828125 -64.953125 L 19.390625 -64.953125 L 19.296875 -12.625 Z M 46.671875 -12.625 "/></g></g></g><g fill="#000000" fill-opacity="1"><g transform="translate(292.204292, 112.124882)"><g><path d="M 5.46875 -64.953125 L 20.046875 -64.953125 L 20.046875 0 L 5.46875 0 Z M 5.46875 -64.953125 "/></g></g></g><g fill="#000000" fill-opacity="1"><g transform="translate(317.808131, 112.124882)"><g><path d="M 19.484375 -52.34375 L 19.484375 -38.609375 L 43.796875 -38.609375 L 43.796875 -27.375 L 19.484375 -27.375 L 19.484375 0 L 4.921875 0 L 4.921875 -64.953125 L 47.046875 -64.953125 L 47.046875 -52.34375 Z M 19.484375 -52.34375 "/></g></g></g><g fill="#000000" fill-opacity="1"><g transform="translate(365.119574, 112.124882)"><g><path d="M 5.46875 -64.953125 L 20.046875 -64.953125 L 20.046875 0 L 5.46875 0 Z M 5.46875 -64.953125 "/></g></g></g><g fill="#000000" fill-opacity="1"><g transform="translate(390.723414, 112.124882)"><g><path d="M 19.390625 -52.34375 L 19.390625 -38.515625 L 44.078125 -38.515625 L 44.078125 -27.28125 L 19.390625 -27.28125 L 19.390625 -12.625 L 48.71875 -12.625 L 48.71875 0 L 4.828125 0 L 4.828125 -64.953125 L 48.71875 -64.953125 L 48.71875 -52.34375 Z M 19.390625 -52.34375 "/></g></g></g><g fill="#000000" fill-opacity="1"><g transform="translate(443.229837, 112.124882)"><g><path d="M 4.828125 -65.046875 L 30.4375 -65.046875 C 36.1875 -65.046875 41.257812 -63.757812 45.65625 -61.1875 C 50.050781 -58.625 53.46875 -54.914062 55.90625 -50.0625 C 58.351562 -45.207031 59.578125 -39.410156 59.578125 -32.671875 C 59.578125 -25.796875 58.335938 -19.914062 55.859375 -15.03125 C 53.390625 -10.144531 49.941406 -6.429688 45.515625 -3.890625 C 41.085938 -1.359375 36 -0.09375 30.25 -0.09375 L 4.828125 -0.09375 Z M 27.5625 -13.078125 C 32.632812 -13.078125 36.65625 -14.53125 39.625 -17.4375 C 42.59375 -20.351562 44.078125 -25.429688 44.078125 -32.671875 C 44.078125 -39.898438 42.609375 -44.96875 39.671875 -47.875 C 36.734375 -50.789062 32.695312 -52.25 27.5625 -52.25 L 18.84375 -52.25 L 18.84375 -13.078125 Z M 27.5625 -13.078125 "/></g></g></g></g></g></svg>