<svg xmlns="http://www.w3.org/2000/svg" xmlns:xlink="http://www.w3.org/1999/xlink" width="1920" zoomAndPan="magnify" viewBox="0 0 1440 809.999993" height="1080" preserveAspectRatio="xMidYMid meet" version="1.0"><defs><g/><clipPath id="74f56dfa9a"><path d="M 0.0078125 237.242188 L 1439.992188 237.242188 L 1439.992188 562.742188 L 0.0078125 562.742188 Z M 0.0078125 237.242188 " clip-rule="nonzero"/></clipPath><clipPath id="922c14455c"><path d="M 19.335938 267.296875 L 696.042969 267.296875 L 696.042969 531.625 L 19.335938 531.625 Z M 19.335938 267.296875 " clip-rule="nonzero"/></clipPath><clipPath id="0019a98788"><path d="M 0.335938 0.296875 L 677 0.296875 L 677 264.625 L 0.335938 264.625 Z M 0.335938 0.296875 " clip-rule="nonzero"/></clipPath><clipPath id="91f55d367c"><rect x="0" width="678" y="0" height="265"/></clipPath><clipPath id="683f307d69"><rect x="0" width="644" y="0" height="188"/></clipPath><clipPath id="445a3566d2"><rect x="0" width="695" y="0" height="187"/></clipPath></defs><rect x="-144" width="1728" fill="#ffffff" y="-80.999999" height="971.999992" fill-opacity="1"/><rect x="-144" width="1728" fill="#ffffff" y="-80.999999" height="971.999992" fill-opacity="1"/><g clip-path="url(#74f56dfa9a)"><path stroke-linecap="butt" transform="matrix(0.75, 0, 0, 0.75, 0.00616909, 237.243406)" fill="none" stroke-linejoin="miter" d="M 0.00219121 -0.00162529 L 1919.981332 -0.00162529 L 1919.981332 433.998369 L 0.00219121 433.998369 Z M 0.00219121 -0.00162529 " stroke="#000000" stroke-width="12" stroke-opacity="1" stroke-miterlimit="4"/></g><g clip-path="url(#922c14455c)"><g transform="matrix(1, 0, 0, 1, 19, 267)"><g clip-path="url(#91f55d367c)"><g clip-path="url(#0019a98788)"><path fill="#000000" d="M 0.335938 0.296875 L 676.640625 0.296875 L 676.640625 264.625 L 0.335938 264.625 Z M 0.335938 0.296875 " fill-opacity="1" fill-rule="nonzero"/></g></g></g></g><g transform="matrix(1, 0, 0, 1, 41, 304)"><g clip-path="url(#683f307d69)"><g fill="#ffffff" fill-opacity="1"><g transform="translate(2.234363, 153.045141)"><g><path d="M 61.90625 -9.890625 L 61.90625 0 L 9.515625 0 L 9.515625 -88.796875 L 20.546875 -88.796875 L 20.421875 -9.890625 Z M 61.90625 -9.890625 "/></g></g></g><g fill="#ffffff" fill-opacity="1"><g transform="translate(78.959997, 153.045141)"><g><path d="M 9.890625 -88.796875 L 20.9375 -88.796875 L 20.9375 0 L 9.890625 0 Z M 9.890625 -88.796875 "/></g></g></g><g fill="#ffffff" fill-opacity="1"><g transform="translate(119.417176, 153.045141)"><g><path d="M 45.28125 0.890625 C 36.570312 0.890625 29.34375 -1.328125 23.59375 -5.765625 C 17.84375 -10.210938 13.59375 -15.898438 10.84375 -22.828125 C 8.09375 -29.765625 6.71875 -37.082031 6.71875 -44.78125 C 6.71875 -52.5625 8.113281 -59.941406 10.90625 -66.921875 C 13.695312 -73.898438 18.050781 -79.609375 23.96875 -84.046875 C 29.894531 -88.484375 37.296875 -90.703125 46.171875 -90.703125 C 56.066406 -90.703125 64.078125 -88.015625 70.203125 -82.640625 C 76.335938 -77.273438 80.59375 -70.535156 82.96875 -62.421875 L 71.421875 -62.421875 C 69.734375 -68.171875 66.773438 -72.648438 62.546875 -75.859375 C 58.316406 -79.078125 52.859375 -80.6875 46.171875 -80.6875 C 37.296875 -80.6875 30.363281 -77.472656 25.375 -71.046875 C 20.382812 -64.617188 17.890625 -55.820312 17.890625 -44.65625 C 17.890625 -33.320312 20.445312 -24.441406 25.5625 -18.015625 C 30.675781 -11.585938 37.71875 -8.375 46.6875 -8.375 C 52.007812 -8.375 56.59375 -9.492188 60.4375 -11.734375 C 64.289062 -13.972656 67.253906 -17.035156 69.328125 -20.921875 C 71.398438 -24.816406 72.476562 -29.21875 72.5625 -34.125 L 72.6875 -37.671875 L 47.828125 -37.671875 L 47.828125 -45.921875 L 82.96875 -45.921875 L 82.96875 0 L 74.21875 0 L 74.21875 -14.71875 L 73.203125 -14.71875 C 72.691406 -13.445312 71.546875 -11.644531 69.765625 -9.3125 C 67.992188 -6.988281 65.054688 -4.707031 60.953125 -2.46875 C 56.847656 -0.226562 51.625 0.890625 45.28125 0.890625 Z M 45.28125 0.890625 "/></g></g></g><g fill="#ffffff" fill-opacity="1"><g transform="translate(219.856772, 153.045141)"><g><path d="M 76.625 -88.796875 L 76.625 0 L 65.59375 0 L 65.59375 -40.21875 L 20.421875 -40.21875 L 20.421875 0 L 9.515625 0 L 9.515625 -88.796875 L 20.421875 -88.796875 L 20.421875 -49.09375 L 65.59375 -49.09375 L 65.59375 -88.796875 Z M 76.625 -88.796875 "/></g></g></g><g fill="#ffffff" fill-opacity="1"><g transform="translate(315.60432, 153.045141)"><g><path d="M 68.890625 -78.90625 L 42.75 -78.90625 L 42.75 0 L 31.84375 0 L 31.84375 -78.90625 L 5.703125 -78.90625 L 5.703125 -88.796875 L 68.890625 -88.796875 Z M 68.890625 -78.90625 "/></g></g></g><g fill="#ffffff" fill-opacity="1"><g transform="translate(399.93872, 153.045141)"><g><path d="M 9.890625 -88.796875 L 20.9375 -88.796875 L 20.9375 0 L 9.890625 0 Z M 9.890625 -88.796875 "/></g></g></g><g fill="#ffffff" fill-opacity="1"><g transform="translate(440.395898, 153.045141)"><g><path d="M 9.515625 -88.796875 L 21.8125 -88.796875 L 69.390625 -17.5 L 69.90625 -17.5 L 69.90625 -88.796875 L 80.6875 -88.796875 L 80.6875 0 L 68.25 0 L 20.8125 -70.28125 L 20.296875 -70.28125 L 20.296875 0 L 9.515625 0 Z M 9.515625 -88.796875 "/></g></g></g><g fill="#ffffff" fill-opacity="1"><g transform="translate(540.201458, 153.045141)"><g><path d="M 45.28125 0.890625 C 36.570312 0.890625 29.34375 -1.328125 23.59375 -5.765625 C 17.84375 -10.210938 13.59375 -15.898438 10.84375 -22.828125 C 8.09375 -29.765625 6.71875 -37.082031 6.71875 -44.78125 C 6.71875 -52.5625 8.113281 -59.941406 10.90625 -66.921875 C 13.695312 -73.898438 18.050781 -79.609375 23.96875 -84.046875 C 29.894531 -88.484375 37.296875 -90.703125 46.171875 -90.703125 C 56.066406 -90.703125 64.078125 -88.015625 70.203125 -82.640625 C 76.335938 -77.273438 80.59375 -70.535156 82.96875 -62.421875 L 71.421875 -62.421875 C 69.734375 -68.171875 66.773438 -72.648438 62.546875 -75.859375 C 58.316406 -79.078125 52.859375 -80.6875 46.171875 -80.6875 C 37.296875 -80.6875 30.363281 -77.472656 25.375 -71.046875 C 20.382812 -64.617188 17.890625 -55.820312 17.890625 -44.65625 C 17.890625 -33.320312 20.445312 -24.441406 25.5625 -18.015625 C 30.675781 -11.585938 37.71875 -8.375 46.6875 -8.375 C 52.007812 -8.375 56.59375 -9.492188 60.4375 -11.734375 C 64.289062 -13.972656 67.253906 -17.035156 69.328125 -20.921875 C 71.398438 -24.816406 72.476562 -29.21875 72.5625 -34.125 L 72.6875 -37.671875 L 47.828125 -37.671875 L 47.828125 -45.921875 L 82.96875 -45.921875 L 82.96875 0 L 74.21875 0 L 74.21875 -14.71875 L 73.203125 -14.71875 C 72.691406 -13.445312 71.546875 -11.644531 69.765625 -9.3125 C 67.992188 -6.988281 65.054688 -4.707031 60.953125 -2.46875 C 56.847656 -0.226562 51.625 0.890625 45.28125 0.890625 Z M 45.28125 0.890625 "/></g></g></g></g></g><g transform="matrix(1, 0, 0, 1, 723, 305)"><g clip-path="url(#445a3566d2)"><g fill="#000000" fill-opacity="1"><g transform="translate(3.139497, 152.579311)"><g><path d="M 39.453125 1.140625 C 32.347656 1.140625 26.191406 -0.253906 20.984375 -3.046875 C 15.785156 -5.835938 11.851562 -9.492188 9.1875 -14.015625 C 6.53125 -18.546875 5.203125 -23.257812 5.203125 -28.15625 L 5.203125 -29.171875 L 26.890625 -29.171875 L 26.890625 -28.296875 C 26.890625 -25.242188 27.988281 -22.445312 30.1875 -19.90625 C 32.382812 -17.375 35.597656 -16.109375 39.828125 -16.109375 C 43.460938 -16.109375 46.378906 -17.035156 48.578125 -18.890625 C 50.785156 -20.753906 51.890625 -23.210938 51.890625 -26.265625 C 51.890625 -28.960938 50.914062 -31.132812 48.96875 -32.78125 C 47.019531 -34.4375 44.648438 -35.5625 41.859375 -36.15625 L 31.71875 -38.1875 C 25.789062 -39.539062 20.25 -42.078125 15.09375 -45.796875 C 9.9375 -49.515625 7.359375 -55.601562 7.359375 -64.0625 C 7.359375 -69.5625 8.6875 -74.296875 11.34375 -78.265625 C 14.007812 -82.242188 17.710938 -85.289062 22.453125 -87.40625 C 27.191406 -89.519531 32.5625 -90.578125 38.5625 -90.578125 C 45.414062 -90.578125 51.335938 -89.265625 56.328125 -86.640625 C 61.316406 -84.023438 65.078125 -80.625 67.609375 -76.4375 C 70.148438 -72.25 71.421875 -67.867188 71.421875 -63.296875 L 71.421875 -62.671875 L 49.734375 -62.671875 L 49.734375 -63.046875 C 49.734375 -65.753906 48.78125 -68.269531 46.875 -70.59375 C 44.96875 -72.914062 41.941406 -74.078125 37.796875 -74.078125 C 34.585938 -74.078125 32.03125 -73.1875 30.125 -71.40625 C 28.226562 -69.632812 27.28125 -67.3125 27.28125 -64.4375 C 27.28125 -61.65625 28.335938 -59.457031 30.453125 -57.84375 C 32.566406 -56.238281 35.101562 -55.140625 38.0625 -54.546875 L 48.328125 -52.265625 C 55.015625 -50.828125 60.722656 -48.117188 65.453125 -44.140625 C 70.191406 -40.171875 72.5625 -34.378906 72.5625 -26.765625 C 72.5625 -21.179688 71.125 -16.273438 68.25 -12.046875 C 65.375 -7.816406 61.421875 -4.5625 56.390625 -2.28125 C 51.359375 0 45.710938 1.140625 39.453125 1.140625 Z M 39.453125 1.140625 "/></g></g></g><g fill="#000000" fill-opacity="1"><g transform="translate(79.861252, 152.579311)"><g><path d="M 7.484375 -88.796875 L 27.40625 -88.796875 L 27.40625 0 L 7.484375 0 Z M 7.484375 -88.796875 "/></g></g></g><g fill="#000000" fill-opacity="1"><g transform="translate(114.861579, 152.579311)"><g><path d="M 6.59375 -88.796875 L 36.03125 -88.796875 L 53.40625 -38.4375 L 53.78125 -38.4375 L 71.171875 -88.796875 L 100.59375 -88.796875 L 100.59375 0 L 81.1875 0 L 81.1875 -60.890625 L 80.6875 -60.890625 L 59.875 0 L 47.3125 0 L 26.515625 -60.890625 L 26 -60.890625 L 26 0 L 6.59375 0 Z M 6.59375 -88.796875 "/></g></g></g><g fill="#000000" fill-opacity="1"><g transform="translate(222.018404, 152.579311)"><g><path d="M 7.484375 -88.796875 L 27.40625 -88.796875 L 27.40625 0 L 7.484375 0 Z M 7.484375 -88.796875 "/></g></g></g><g fill="#000000" fill-opacity="1"><g transform="translate(257.01873, 152.579311)"><g><path d="M 40.34375 -88.796875 C 47.363281 -88.796875 53.300781 -87.359375 58.15625 -84.484375 C 63.019531 -81.609375 66.632812 -77.800781 69 -73.0625 C 71.375 -68.332031 72.5625 -63.21875 72.5625 -57.71875 C 72.5625 -52.3125 71.398438 -47.300781 69.078125 -42.6875 C 66.753906 -38.082031 63.160156 -34.382812 58.296875 -31.59375 C 53.429688 -28.800781 47.445312 -27.40625 40.34375 -27.40625 L 26 -27.40625 L 26 0 L 6.59375 0 L 6.59375 -88.796875 Z M 37.171875 -43.640625 C 41.734375 -43.640625 45.578125 -44.71875 48.703125 -46.875 C 51.835938 -49.03125 53.40625 -52.644531 53.40625 -57.71875 C 53.40625 -62.789062 51.859375 -66.34375 48.765625 -68.375 C 45.679688 -70.40625 41.816406 -71.421875 37.171875 -71.421875 L 26 -71.421875 L 26 -43.640625 Z M 37.171875 -43.640625 "/></g></g></g><g fill="#000000" fill-opacity="1"><g transform="translate(331.331017, 152.579311)"><g><path d="M 63.8125 -17.25 L 63.8125 0 L 6.59375 0 L 6.59375 -88.796875 L 26.515625 -88.796875 L 26.390625 -17.25 Z M 63.8125 -17.25 "/></g></g></g><g fill="#000000" fill-opacity="1"><g transform="translate(399.175878, 152.579311)"><g><path d="M 7.484375 -88.796875 L 27.40625 -88.796875 L 27.40625 0 L 7.484375 0 Z M 7.484375 -88.796875 "/></g></g></g><g fill="#000000" fill-opacity="1"><g transform="translate(434.176204, 152.579311)"><g><path d="M 26.640625 -71.546875 L 26.640625 -52.78125 L 59.875 -52.78125 L 59.875 -37.421875 L 26.640625 -37.421875 L 26.640625 0 L 6.71875 0 L 6.71875 -88.796875 L 64.3125 -88.796875 L 64.3125 -71.546875 Z M 26.640625 -71.546875 "/></g></g></g><g fill="#000000" fill-opacity="1"><g transform="translate(498.850721, 152.579311)"><g><path d="M 7.484375 -88.796875 L 27.40625 -88.796875 L 27.40625 0 L 7.484375 0 Z M 7.484375 -88.796875 "/></g></g></g><g fill="#000000" fill-opacity="1"><g transform="translate(533.851048, 152.579311)"><g><path d="M 26.515625 -71.546875 L 26.515625 -52.640625 L 60.265625 -52.640625 L 60.265625 -37.296875 L 26.515625 -37.296875 L 26.515625 -17.25 L 66.59375 -17.25 L 66.59375 0 L 6.59375 0 L 6.59375 -88.796875 L 66.59375 -88.796875 L 66.59375 -71.546875 Z M 26.515625 -71.546875 "/></g></g></g><g fill="#000000" fill-opacity="1"><g transform="translate(605.627079, 152.579311)"><g><path d="M 6.59375 -88.921875 L 41.609375 -88.921875 C 49.472656 -88.921875 56.40625 -87.164062 62.40625 -83.65625 C 68.414062 -80.15625 73.085938 -75.082031 76.421875 -68.4375 C 79.765625 -61.800781 81.4375 -53.875 81.4375 -44.65625 C 81.4375 -35.269531 79.742188 -27.234375 76.359375 -20.546875 C 72.984375 -13.867188 68.269531 -8.796875 62.21875 -5.328125 C 56.175781 -1.859375 49.222656 -0.125 41.359375 -0.125 L 6.59375 -0.125 Z M 37.671875 -17.890625 C 44.609375 -17.890625 50.109375 -19.875 54.171875 -23.84375 C 58.234375 -27.820312 60.265625 -34.757812 60.265625 -44.65625 C 60.265625 -54.550781 58.253906 -61.484375 54.234375 -65.453125 C 50.210938 -69.429688 44.691406 -71.421875 37.671875 -71.421875 L 25.75 -71.421875 L 25.75 -17.890625 Z M 37.671875 -17.890625 "/></g></g></g></g></g></svg>